<svg xmlns="http://www.w3.org/2000/svg" version="1.1" xmlns:xlink="http://www.w3.org/1999/xlink" xmlns:svgjs="http://svgjs.dev/svgjs" width="1440" height="560" preserveAspectRatio="none" viewBox="0 0 1440 560"><g mask="url(&quot;#SvgjsMask1016&quot;)" fill="none"><path d="M1534.13 193.1C1416.14 197.66 1326.74 391.04 1104.42 389.1 882.1 387.16 821.94-1.85 674.71-35.56" stroke="rgba(12, 10, 9, 1)" stroke-width="2"></path><path d="M1483.13 194.83C1319.92 195.31 1090.63 314.8 840.96 312.43 591.3 310.06 638.57-30.91 519.88-68.93" stroke="rgba(12, 10, 9, 1)" stroke-width="2"></path><path d="M1628.95 136.59C1521.92 136.35 1417.76 66.59 1206.57 66.59 995.39 66.59 996.76 136.75 784.2 136.59 571.63 136.43 475.28-26.95 361.82-29.92" stroke="rgba(12, 10, 9, 1)" stroke-width="2"></path><path d="M1460.76 276.79C1342.37 276.6 1226.58 206.79 992.4 206.79 758.22 206.79 766.6 279 524.04 276.79 281.48 274.58 197.1-31.03 55.68-46.18" stroke="rgba(12, 10, 9, 1)" stroke-width="2"></path><path d="M1638.05 450.68C1480.76 449.8 1292.53 331.67 1024.64 310.68 756.76 289.69 837.86-57 717.94-104.86" stroke="rgba(12, 10, 9, 1)" stroke-width="2"></path></g><defs><mask id="SvgjsMask1016"><rect width="1440" height="560" fill="#ffffff"></rect></mask></defs></svg>