<svg version="1.1" xmlns="http://www.w3.org/2000/svg" viewBox="0 0 638.46875 396.890625" width="638.46875" height="396.890625" filter="invert(93%) hue-rotate(180deg)">
  <!-- svg-source:excalidraw -->
  
  <defs>
    <style class="style-fonts">
      @font-face {
        font-family: "Virgil";
        src: url("https://excalidraw.com/Virgil.woff2");
      }
      @font-face {
        font-family: "Cascadia";
        src: url("https://excalidraw.com/Cascadia.woff2");
      }
      @font-face {
        font-family: "Assistant";
        src: url("https://app.excalidraw.com//dist/excalidraw-assets/Assistant-Regular.woff2");
      }
    </style>
    
  </defs>
  <g stroke-linecap="round" transform="translate(116.30078125 155.51953125) rotate(0 109.373046875 12.630859375)"><path d="M6.32 0 C82.8 -0.36, 163.81 1.14, 212.43 0 C216.01 1.88, 218.21 -0.25, 218.75 6.32 C217.38 10.58, 220.71 10.77, 218.75 18.95 C218.97 24.3, 215.01 24.84, 212.43 25.26 C159.39 24.28, 104.37 21.58, 6.32 25.26 C4.19 28.33, -3.46 21.85, 0 18.95 C-0.45 15.05, -0.79 11.88, 0 6.32 C-0.86 5.14, 1.89 3.32, 6.32 0" stroke="none" stroke-width="0" fill="#d0bfff"></path><path d="M6.32 0 C51.85 1.93, 95.35 1.43, 212.43 0 M6.32 0 C69.3 0.11, 132.09 0.49, 212.43 0 M212.43 0 C216.9 -0.2, 220.35 1.26, 218.75 6.32 M212.43 0 C214.39 2.2, 218.15 1.79, 218.75 6.32 M218.75 6.32 C219.74 10.31, 218.01 17.09, 218.75 18.95 M218.75 6.32 C218.31 10.64, 218.25 15.33, 218.75 18.95 M218.75 18.95 C217.6 21.6, 215.74 27.06, 212.43 25.26 M218.75 18.95 C219.12 22.89, 214.99 23.76, 212.43 25.26 M212.43 25.26 C159.16 24.53, 104.25 25.26, 6.32 25.26 M212.43 25.26 C140.53 25.82, 68.49 26.47, 6.32 25.26 M6.32 25.26 C2.37 25.97, -1.11 22.51, 0 18.95 M6.32 25.26 C3.93 27.07, -0.37 24.56, 0 18.95 M0 18.95 C0.44 13.41, 0.44 10.36, 0 6.32 M0 18.95 C-0.38 15.91, -0.46 13.76, 0 6.32 M0 6.32 C-0.75 4.1, 1.1 -1.69, 6.32 0 M0 6.32 C-0.6 0.37, 2.61 0.93, 6.32 0" stroke="#1e1e1e" stroke-width="1" fill="none"></path></g><g stroke-linecap="round" transform="translate(326.3359375 182.6796875) rotate(0 48.095703125 12.09375)"><path d="M6.05 0 C33.94 0.58, 62.57 -3.66, 90.14 0 C92.63 -1.08, 96.68 -0.04, 96.19 6.05 C96.52 10.91, 95.4 14.13, 96.19 18.14 C95.02 18.87, 92.58 26.5, 90.14 24.19 C65.74 26.2, 33.72 21.83, 6.05 24.19 C1.7 26.37, 0.66 21.67, 0 18.14 C-0.46 16.46, -0.07 13.12, 0 6.05 C-1.48 2.18, 3.88 2.35, 6.05 0" stroke="none" stroke-width="0" fill="#96f2d7"></path><path d="M6.05 0 C35.98 -0.03, 65.57 -0.04, 90.14 0 M6.05 0 C31.35 -0.45, 57.2 -0.77, 90.14 0 M90.14 0 C92.22 1.92, 95.68 1.74, 96.19 6.05 M90.14 0 C96.2 0.85, 97.06 3.73, 96.19 6.05 M96.19 6.05 C97.01 7.92, 95.23 10.9, 96.19 18.14 M96.19 6.05 C95.77 8.44, 95.84 12.32, 96.19 18.14 M96.19 18.14 C96.51 21.94, 92.74 22.88, 90.14 24.19 M96.19 18.14 C95.25 22.17, 92.98 24.35, 90.14 24.19 M90.14 24.19 C64.88 25.91, 38.11 25.26, 6.05 24.19 M90.14 24.19 C64.22 25.23, 37.48 24.56, 6.05 24.19 M6.05 24.19 C3.61 25.76, -0.33 23.39, 0 18.14 M6.05 24.19 C3.33 26.39, 0.91 23.19, 0 18.14 M0 18.14 C-1.23 15.32, 1 12.08, 0 6.05 M0 18.14 C-0.13 16.04, -0.21 12.22, 0 6.05 M0 6.05 C-0.52 0.51, 2.45 0.81, 6.05 0 M0 6.05 C1.86 1.93, 3.14 -1.45, 6.05 0" stroke="#1e1e1e" stroke-width="1" fill="none"></path></g><g stroke-linecap="round" transform="translate(10 111.8125) rotate(0 309.234375 22.029296875)"><path d="M11.01 0 C175.1 0.23, 337.96 -0.23, 607.45 0 C612.53 1.41, 619.01 6.77, 618.47 11.01 C616.32 15.69, 617.6 23.94, 618.47 33.04 C616.41 42, 618.02 40.82, 607.45 44.06 C424.57 41.64, 240.71 41.47, 11.01 44.06 C5.99 44.6, 2.41 37.89, 0 33.04 C-1.65 24.85, 1.85 17.94, 0 11.01 C-0.5 3.33, 2.64 0.46, 11.01 0" stroke="none" stroke-width="0" fill="#ffd8a8"></path><path d="M11.01 0 C196.86 -0.77, 383.79 -0.49, 607.45 0 M11.01 0 C245.53 -1.69, 479.88 -1.74, 607.45 0 M607.45 0 C614.98 -0.01, 618.39 4.51, 618.47 11.01 M607.45 0 C615.09 -0.22, 620.31 2.7, 618.47 11.01 M618.47 11.01 C618.41 17.23, 619.42 20.68, 618.47 33.04 M618.47 11.01 C619.08 20, 617.58 26.79, 618.47 33.04 M618.47 33.04 C617.38 39.13, 613.53 42.71, 607.45 44.06 M618.47 33.04 C617.16 38.59, 613.76 46.12, 607.45 44.06 M607.45 44.06 C418.37 42.02, 230.34 41.93, 11.01 44.06 M607.45 44.06 C424.49 42.41, 241.34 42.31, 11.01 44.06 M11.01 44.06 C4.29 44.26, 0.95 42.03, 0 33.04 M11.01 44.06 C3.97 44.87, -1.27 39.64, 0 33.04 M0 33.04 C1.05 25.82, 1.74 17.12, 0 11.01 M0 33.04 C0.52 24.48, 0.04 18.75, 0 11.01 M0 11.01 C-1.26 2.15, 2.16 -0.24, 11.01 0 M0 11.01 C-0.86 5.96, 2.51 -1.94, 11.01 0" stroke="#1e1e1e" stroke-width="1" fill="none"></path></g><g stroke-linecap="round" transform="translate(331.43359375 109.6484375) rotate(0 48.8984375 22.69921875)"><path d="M11.35 0 C36.26 -0.19, 64.74 -1.17, 86.45 0 C95.62 3.22, 94.56 4.01, 97.8 11.35 C96.44 15.58, 96.02 28.73, 97.8 34.05 C98.33 44.03, 91.52 47.48, 86.45 45.4 C57.21 47.09, 29.27 44.41, 11.35 45.4 C3.44 44.37, 0.46 40.76, 0 34.05 C-1.45 25.49, 1.89 18.95, 0 11.35 C0.23 3.3, 4.33 -2.02, 11.35 0" stroke="none" stroke-width="0" fill="#c2255c"></path><path d="M11.35 0 C34.57 -0.15, 58.66 0.19, 86.45 0 M11.35 0 C32.17 1.27, 54.68 0.18, 86.45 0 M86.45 0 C95.77 0.74, 98.55 5.28, 97.8 11.35 M86.45 0 C92.36 -1.42, 99.57 5.48, 97.8 11.35 M97.8 11.35 C96.37 15.23, 96.28 20.51, 97.8 34.05 M97.8 11.35 C97.86 16.28, 96.98 20.78, 97.8 34.05 M97.8 34.05 C96.98 41.61, 92.97 45.54, 86.45 45.4 M97.8 34.05 C98.08 39.83, 95.25 46.55, 86.45 45.4 M86.45 45.4 C59.33 46.58, 33.47 45.89, 11.35 45.4 M86.45 45.4 C62.07 45.94, 35.93 45.77, 11.35 45.4 M11.35 45.4 C4.92 47.31, 0.79 42.5, 0 34.05 M11.35 45.4 C1.92 46.42, 0.79 39.37, 0 34.05 M0 34.05 C-1.72 26.05, -0.43 20.33, 0 11.35 M0 34.05 C-0.14 24.22, 0.33 16.31, 0 11.35 M0 11.35 C1.62 3.71, 4.76 -1.26, 11.35 0 M0 11.35 C0.9 4.13, 5.76 -0.41, 11.35 0" stroke="#1e1e1e" stroke-width="1" fill="none"></path></g><g transform="translate(137.17578125 10) rotate(0 89.44596099853516 17.5)"><text x="0" y="24.528" font-family="Virgil, Segoe UI Emoji" font-size="28px" fill="#1e1e1e" text-anchor="start" style="white-space: pre;" direction="ltr" dominant-baseline="alphabetic">Async script </text></g><g stroke-linecap="round" transform="translate(45.71875 274.1015625) rotate(0 18.091796875 15.408203125)"><path d="M7.7 0 C14.61 0, 21.51 0, 28.48 0 C33.62 0, 36.18 2.57, 36.18 7.7 C36.18 13.74, 36.18 19.78, 36.18 23.11 C36.18 28.25, 33.62 30.82, 28.48 30.82 C23.04 30.82, 17.6 30.82, 7.7 30.82 C2.57 30.82, 0 28.25, 0 23.11 C0 18, 0 12.9, 0 7.7 C0 2.57, 2.57 0, 7.7 0" stroke="none" stroke-width="0" fill="#ffd8a8"></path><path d="M7.7 0 C12.32 0, 16.93 0, 28.48 0 M7.7 0 C14.31 0, 20.91 0, 28.48 0 M28.48 0 C33.62 0, 36.18 2.57, 36.18 7.7 M28.48 0 C33.62 0, 36.18 2.57, 36.18 7.7 M36.18 7.7 C36.18 11.41, 36.18 15.11, 36.18 23.11 M36.18 7.7 C36.18 11.77, 36.18 15.83, 36.18 23.11 M36.18 23.11 C36.18 28.25, 33.62 30.82, 28.48 30.82 M36.18 23.11 C36.18 28.25, 33.62 30.82, 28.48 30.82 M28.48 30.82 C23.23 30.82, 17.99 30.82, 7.7 30.82 M28.48 30.82 C22.92 30.82, 17.35 30.82, 7.7 30.82 M7.7 30.82 C2.57 30.82, 0 28.25, 0 23.11 M7.7 30.82 C2.57 30.82, 0 28.25, 0 23.11 M0 23.11 C0 19.09, 0 15.06, 0 7.7 M0 23.11 C0 18.24, 0 13.37, 0 7.7 M0 7.7 C0 2.57, 2.57 0, 7.7 0 M0 7.7 C0 2.57, 2.57 0, 7.7 0" stroke="#1e1e1e" stroke-width="1" fill="none"></path></g><g transform="translate(95.47265625 279.509765625) rotate(0 53.663970947265625 10)"><text x="0" y="14.016" font-family="Virgil, Segoe UI Emoji" font-size="16px" fill="#1e1e1e" text-anchor="start" style="white-space: pre;" direction="ltr" dominant-baseline="alphabetic">HTML Parsing</text></g><g stroke-linecap="round" transform="translate(45.765625 355.78125) rotate(0 18.392578125 15.5546875)"><path d="M7.78 0 C15.03 0, 22.28 0, 29.01 0 C34.19 0, 36.79 2.59, 36.79 7.78 C36.79 11.44, 36.79 15.1, 36.79 23.33 C36.79 28.52, 34.19 31.11, 29.01 31.11 C24.07 31.11, 19.14 31.11, 7.78 31.11 C2.59 31.11, 0 28.52, 0 23.33 C0 19.93, 0 16.53, 0 7.78 C0 2.59, 2.59 0, 7.78 0" stroke="none" stroke-width="0" fill="#d0bfff"></path><path d="M7.78 0 C15.92 0, 24.05 0, 29.01 0 M7.78 0 C14.63 0, 21.49 0, 29.01 0 M29.01 0 C34.19 0, 36.79 2.59, 36.79 7.78 M29.01 0 C34.19 0, 36.79 2.59, 36.79 7.78 M36.79 7.78 C36.79 10.9, 36.79 14.02, 36.79 23.33 M36.79 7.78 C36.79 12.91, 36.79 18.05, 36.79 23.33 M36.79 23.33 C36.79 28.52, 34.19 31.11, 29.01 31.11 M36.79 23.33 C36.79 28.52, 34.19 31.11, 29.01 31.11 M29.01 31.11 C20.98 31.11, 12.96 31.11, 7.78 31.11 M29.01 31.11 C22.99 31.11, 16.98 31.11, 7.78 31.11 M7.78 31.11 C2.59 31.11, 0 28.52, 0 23.33 M7.78 31.11 C2.59 31.11, 0 28.52, 0 23.33 M0 23.33 C0 19.75, 0 16.16, 0 7.78 M0 23.33 C0 19.98, 0 16.64, 0 7.78 M0 7.78 C0 2.59, 2.59 0, 7.78 0 M0 7.78 C0 2.59, 2.59 0, 7.78 0" stroke="#1e1e1e" stroke-width="1" fill="none"></path></g><g transform="translate(98.44921875 361.3359375) rotate(0 64.89595031738281 10)"><text x="0" y="14.016" font-family="Virgil, Segoe UI Emoji" font-size="16px" fill="#1e1e1e" text-anchor="start" style="white-space: pre;" direction="ltr" dominant-baseline="alphabetic">Script downloads</text></g><g stroke-linecap="round" transform="translate(325.77734375 283.71875) rotate(0 17.470703125 15.15625)"><path d="M7.58 0 C14.9 0, 22.22 0, 27.36 0 C32.42 0, 34.94 2.53, 34.94 7.58 C34.94 11.53, 34.94 15.48, 34.94 22.73 C34.94 27.79, 32.42 30.31, 27.36 30.31 C22.46 30.31, 17.55 30.31, 7.58 30.31 C2.53 30.31, 0 27.79, 0 22.73 C0 19.19, 0 15.64, 0 7.58 C0 2.53, 2.53 0, 7.58 0" stroke="none" stroke-width="0" fill="#96f2d7"></path><path d="M7.58 0 C14.35 0, 21.12 0, 27.36 0 M7.58 0 C13.01 0, 18.43 0, 27.36 0 M27.36 0 C32.42 0, 34.94 2.53, 34.94 7.58 M27.36 0 C32.42 0, 34.94 2.53, 34.94 7.58 M34.94 7.58 C34.94 11.05, 34.94 14.52, 34.94 22.73 M34.94 7.58 C34.94 12.07, 34.94 16.57, 34.94 22.73 M34.94 22.73 C34.94 27.79, 32.42 30.31, 27.36 30.31 M34.94 22.73 C34.94 27.79, 32.42 30.31, 27.36 30.31 M27.36 30.31 C20.38 30.31, 13.4 30.31, 7.58 30.31 M27.36 30.31 C21.05 30.31, 14.73 30.31, 7.58 30.31 M7.58 30.31 C2.53 30.31, 0 27.79, 0 22.73 M7.58 30.31 C2.53 30.31, 0 27.79, 0 22.73 M0 22.73 C0 17.28, 0 11.83, 0 7.58 M0 22.73 C0 18.12, 0 13.51, 0 7.58 M0 7.58 C0 2.53, 2.53 0, 7.58 0 M0 7.58 C0 2.53, 2.53 0, 7.58 0" stroke="#1e1e1e" stroke-width="1" fill="none"></path></g><g transform="translate(372.1640625 288.875) rotate(0 79.70394897460938 10)"><text x="0" y="14.016" font-family="Virgil, Segoe UI Emoji" font-size="16px" fill="#1e1e1e" text-anchor="start" style="white-space: pre;" direction="ltr" dominant-baseline="alphabetic">Executing the script</text></g><g stroke-linecap="round" transform="translate(325.77734375 353.3671875) rotate(0 17.470703125 15.15625)"><path d="M7.58 0 C11.71 0, 15.84 0, 27.36 0 C32.42 0, 34.94 2.53, 34.94 7.58 C34.94 11.07, 34.94 14.57, 34.94 22.73 C34.94 27.79, 32.42 30.31, 27.36 30.31 C19.81 30.31, 12.25 30.31, 7.58 30.31 C2.53 30.31, 0 27.79, 0 22.73 C0 17.36, 0 11.99, 0 7.58 C0 2.53, 2.53 0, 7.58 0" stroke="none" stroke-width="0" fill="#c2255c"></path><path d="M7.58 0 C13.98 0, 20.39 0, 27.36 0 M7.58 0 C11.67 0, 15.75 0, 27.36 0 M27.36 0 C32.42 0, 34.94 2.53, 34.94 7.58 M27.36 0 C32.42 0, 34.94 2.53, 34.94 7.58 M34.94 7.58 C34.94 10.72, 34.94 13.87, 34.94 22.73 M34.94 7.58 C34.94 13.25, 34.94 18.93, 34.94 22.73 M34.94 22.73 C34.94 27.79, 32.42 30.31, 27.36 30.31 M34.94 22.73 C34.94 27.79, 32.42 30.31, 27.36 30.31 M27.36 30.31 C19.99 30.31, 12.62 30.31, 7.58 30.31 M27.36 30.31 C23.24 30.31, 19.11 30.31, 7.58 30.31 M7.58 30.31 C2.53 30.31, 0 27.79, 0 22.73 M7.58 30.31 C2.53 30.31, 0 27.79, 0 22.73 M0 22.73 C0 19.49, 0 16.24, 0 7.58 M0 22.73 C0 18.48, 0 14.22, 0 7.58 M0 7.58 C0 2.53, 2.53 0, 7.58 0 M0 7.58 C0 2.53, 2.53 0, 7.58 0" stroke="#1e1e1e" stroke-width="1" fill="none"></path></g><g transform="translate(376.3046875 358.5234375) rotate(0 83.41594696044922 10)"><text x="0" y="14.016" font-family="Virgil, Segoe UI Emoji" font-size="16px" fill="#1e1e1e" text-anchor="start" style="white-space: pre;" direction="ltr" dominant-baseline="alphabetic">HTML parsing paused</text></g></svg>