<svg version="1.1" xmlns="http://www.w3.org/2000/svg" viewBox="0 0 726.671875 390.9921875" width="726.671875" height="390.9921875" filter="invert(93%) hue-rotate(180deg)">
  <!-- svg-source:excalidraw -->
  
  <defs>
    <style class="style-fonts">
      @font-face {
        font-family: "Virgil";
        src: url("https://excalidraw.com/Virgil.woff2");
      }
      @font-face {
        font-family: "Cascadia";
        src: url("https://excalidraw.com/Cascadia.woff2");
      }
      @font-face {
        font-family: "Assistant";
        src: url("https://app.excalidraw.com//dist/excalidraw-assets/Assistant-Regular.woff2");
      }
    </style>
    
  </defs>
  <g stroke-linecap="round" transform="translate(116.30078125 149.62109375) rotate(0 109.373046875 15.1171875)"><path d="M7.56 0 C56.56 -0.73, 113.55 -3.19, 211.19 0 C219.69 -0.87, 216.73 4.44, 218.75 7.56 C218.48 10.73, 219.22 16.85, 218.75 22.68 C220.24 26.16, 216.75 30.24, 211.19 30.23 C129.93 31.84, 49.61 30.83, 7.56 30.23 C-0.56 33.4, -2.63 29.85, 0 22.68 C-0.58 19.64, 0.9 13.34, 0 7.56 C-1.69 -1, 5.39 2.07, 7.56 0" stroke="none" stroke-width="0" fill="#d0bfff"></path><path d="M7.56 0 C65.47 2.82, 125.23 2.87, 211.19 0 M7.56 0 C53.66 -1.87, 101.4 -1.01, 211.19 0 M211.19 0 C216.6 -0.28, 218.56 1.95, 218.75 7.56 M211.19 0 C216.52 -0.55, 220.68 2.38, 218.75 7.56 M218.75 7.56 C219.47 14.47, 218.78 19.21, 218.75 22.68 M218.75 7.56 C218.42 11.58, 218.23 17.22, 218.75 22.68 M218.75 22.68 C218.58 29.21, 217.81 29.4, 211.19 30.23 M218.75 22.68 C218.76 28.77, 215.66 28.41, 211.19 30.23 M211.19 30.23 C141.57 32.46, 70.88 30.24, 7.56 30.23 M211.19 30.23 C154.73 31.62, 96.85 31.97, 7.56 30.23 M7.56 30.23 C4.14 30.43, -1.86 28.46, 0 22.68 M7.56 30.23 C2.47 30.45, 0.9 26.61, 0 22.68 M0 22.68 C-0.65 16.05, 1.28 10.52, 0 7.56 M0 22.68 C-0.61 18.53, 0.11 15.26, 0 7.56 M0 7.56 C0.52 4.1, 1.58 1.81, 7.56 0 M0 7.56 C-2.13 1.58, 4.42 0.28, 7.56 0" stroke="#1e1e1e" stroke-width="1" fill="none"></path></g><g stroke-linecap="round" transform="translate(10 105.9140625) rotate(0 309.234375 22.029296875)"><path d="M11.01 0 C198.29 -2.16, 384.29 0.33, 607.45 0 C613.7 3.47, 617.6 1.66, 618.47 11.01 C621.45 18.33, 615.99 27.09, 618.47 33.04 C617.06 41.89, 613.25 44.59, 607.45 44.06 C428.99 42.95, 249.69 42.66, 11.01 44.06 C3.02 40.98, 3.17 37.76, 0 33.04 C-0.61 24.36, 1.01 18.4, 0 11.01 C-2.77 1.98, 0.15 2.87, 11.01 0" stroke="none" stroke-width="0" fill="#ffd8a8"></path><path d="M11.01 0 C162.11 0.42, 315.19 0.9, 607.45 0 M11.01 0 C230.23 -1.76, 448.62 -1.41, 607.45 0 M607.45 0 C616.01 0.37, 618.19 3.48, 618.47 11.01 M607.45 0 C614.14 0.29, 617.92 5.61, 618.47 11.01 M618.47 11.01 C618.76 18.53, 619.98 24.09, 618.47 33.04 M618.47 11.01 C618.87 17.01, 617.52 23.07, 618.47 33.04 M618.47 33.04 C618.8 40.22, 616.29 45.65, 607.45 44.06 M618.47 33.04 C617.51 40.4, 615.86 43.49, 607.45 44.06 M607.45 44.06 C476.33 45.89, 344.88 45.49, 11.01 44.06 M607.45 44.06 C461.81 42.77, 315.82 42.44, 11.01 44.06 M11.01 44.06 C5.09 45.68, 0.19 38.52, 0 33.04 M11.01 44.06 C4.53 44.01, 0.21 41.29, 0 33.04 M0 33.04 C0.98 26.57, -1.59 23.57, 0 11.01 M0 33.04 C-0.08 27.28, -0.73 23.22, 0 11.01 M0 11.01 C-1.26 4.19, 5.25 -0.94, 11.01 0 M0 11.01 C2.08 1.55, 2.73 1.9, 11.01 0" stroke="#1e1e1e" stroke-width="1" fill="none"></path></g><g stroke-linecap="round" transform="translate(620.48046875 146.203125) rotate(0 48.095703125 14.4140625)"><path d="M7.21 0 C35.45 4.63, 59.28 4.57, 88.98 0 C92.92 -2.02, 98.11 3.94, 96.19 7.21 C94.48 12.39, 95.37 17.91, 96.19 21.62 C94.64 26.95, 93.79 32.11, 88.98 28.83 C65.69 25.6, 40.8 25.02, 7.21 28.83 C5.57 26.2, 2.14 24.25, 0 21.62 C0.61 18.17, -1.93 11.78, 0 7.21 C-3.52 5.28, 4.47 3.55, 7.21 0" stroke="none" stroke-width="0" fill="#96f2d7"></path><path d="M7.21 0 C30.36 0.66, 52.27 -1.03, 88.98 0 M7.21 0 C36.11 0.7, 66.34 0.97, 88.98 0 M88.98 0 C93.51 -0.19, 95.62 2.66, 96.19 7.21 M88.98 0 C93.24 1.94, 96.05 4.52, 96.19 7.21 M96.19 7.21 C97.14 11.03, 96 14.89, 96.19 21.62 M96.19 7.21 C95.54 10.31, 96.37 14.17, 96.19 21.62 M96.19 21.62 C97.69 28.01, 92.95 28.84, 88.98 28.83 M96.19 21.62 C97.25 25.86, 91.96 29.81, 88.98 28.83 M88.98 28.83 C59.86 28.13, 26.86 28.52, 7.21 28.83 M88.98 28.83 C70.21 29.37, 51.52 30.26, 7.21 28.83 M7.21 28.83 C2.6 26.96, 0.75 26.39, 0 21.62 M7.21 28.83 C2.61 29.73, -1.1 27.94, 0 21.62 M0 21.62 C-1.12 18.9, -1.12 12.8, 0 7.21 M0 21.62 C-0.61 17.02, -0.42 12.31, 0 7.21 M0 7.21 C1.58 1.46, 4.21 -1.85, 7.21 0 M0 7.21 C-0.94 4.3, 2.69 -1.09, 7.21 0" stroke="#1e1e1e" stroke-width="1" fill="none"></path></g><g stroke-linecap="round" transform="translate(45.71875 268.203125) rotate(0 18.091796875 15.408203125)"><path d="M7.7 0 C12.37 0, 17.04 0, 28.48 0 C33.62 0, 36.18 2.57, 36.18 7.7 C36.18 12.13, 36.18 16.55, 36.18 23.11 C36.18 28.25, 33.62 30.82, 28.48 30.82 C23.27 30.82, 18.06 30.82, 7.7 30.82 C2.57 30.82, 0 28.25, 0 23.11 C0 18.82, 0 14.52, 0 7.7 C0 2.57, 2.57 0, 7.7 0" stroke="none" stroke-width="0" fill="#ffd8a8"></path><path d="M7.7 0 C13.02 0, 18.33 0, 28.48 0 M7.7 0 C11.94 0, 16.18 0, 28.48 0 M28.48 0 C33.62 0, 36.18 2.57, 36.18 7.7 M28.48 0 C33.62 0, 36.18 2.57, 36.18 7.7 M36.18 7.7 C36.18 13.12, 36.18 18.55, 36.18 23.11 M36.18 7.7 C36.18 11.84, 36.18 15.98, 36.18 23.11 M36.18 23.11 C36.18 28.25, 33.62 30.82, 28.48 30.82 M36.18 23.11 C36.18 28.25, 33.62 30.82, 28.48 30.82 M28.48 30.82 C22.03 30.82, 15.59 30.82, 7.7 30.82 M28.48 30.82 C20.68 30.82, 12.87 30.82, 7.7 30.82 M7.7 30.82 C2.57 30.82, 0 28.25, 0 23.11 M7.7 30.82 C2.57 30.82, 0 28.25, 0 23.11 M0 23.11 C0 19.2, 0 15.28, 0 7.7 M0 23.11 C0 19.64, 0 16.16, 0 7.7 M0 7.7 C0 2.57, 2.57 0, 7.7 0 M0 7.7 C0 2.57, 2.57 0, 7.7 0" stroke="#1e1e1e" stroke-width="1" fill="none"></path></g><g transform="translate(95.47265625 273.611328125) rotate(0 53.663970947265625 10)"><text x="0" y="14.016" font-family="Virgil, Segoe UI Emoji" font-size="16px" fill="#1e1e1e" text-anchor="start" style="white-space: pre;" direction="ltr" dominant-baseline="alphabetic">HTML Parsing</text></g><g stroke-linecap="round" transform="translate(45.765625 349.8828125) rotate(0 18.392578125 15.5546875)"><path d="M7.78 0 C16.22 0, 24.67 0, 29.01 0 C34.19 0, 36.79 2.59, 36.79 7.78 C36.79 12.66, 36.79 17.55, 36.79 23.33 C36.79 28.52, 34.19 31.11, 29.01 31.11 C24.11 31.11, 19.22 31.11, 7.78 31.11 C2.59 31.11, 0 28.52, 0 23.33 C0 18.15, 0 12.97, 0 7.78 C0 2.59, 2.59 0, 7.78 0" stroke="none" stroke-width="0" fill="#d0bfff"></path><path d="M7.78 0 C14.46 0, 21.15 0, 29.01 0 M7.78 0 C13.96 0, 20.15 0, 29.01 0 M29.01 0 C34.19 0, 36.79 2.59, 36.79 7.78 M29.01 0 C34.19 0, 36.79 2.59, 36.79 7.78 M36.79 7.78 C36.79 12.54, 36.79 17.31, 36.79 23.33 M36.79 7.78 C36.79 11.55, 36.79 15.32, 36.79 23.33 M36.79 23.33 C36.79 28.52, 34.19 31.11, 29.01 31.11 M36.79 23.33 C36.79 28.52, 34.19 31.11, 29.01 31.11 M29.01 31.11 C23.47 31.11, 17.94 31.11, 7.78 31.11 M29.01 31.11 C22.8 31.11, 16.58 31.11, 7.78 31.11 M7.78 31.11 C2.59 31.11, 0 28.52, 0 23.33 M7.78 31.11 C2.59 31.11, 0 28.52, 0 23.33 M0 23.33 C0 17.39, 0 11.46, 0 7.78 M0 23.33 C0 18.35, 0 13.36, 0 7.78 M0 7.78 C0 2.59, 2.59 0, 7.78 0 M0 7.78 C0 2.59, 2.59 0, 7.78 0" stroke="#1e1e1e" stroke-width="1" fill="none"></path></g><g transform="translate(98.44921875 355.4375) rotate(0 64.89595031738281 10)"><text x="0" y="14.016" font-family="Virgil, Segoe UI Emoji" font-size="16px" fill="#1e1e1e" text-anchor="start" style="white-space: pre;" direction="ltr" dominant-baseline="alphabetic">Script downloads</text></g><g stroke-linecap="round" transform="translate(325.77734375 277.8203125) rotate(0 17.470703125 15.15625)"><path d="M7.58 0 C15.42 0, 23.26 0, 27.36 0 C32.42 0, 34.94 2.53, 34.94 7.58 C34.94 12.76, 34.94 17.93, 34.94 22.73 C34.94 27.79, 32.42 30.31, 27.36 30.31 C23.12 30.31, 18.88 30.31, 7.58 30.31 C2.53 30.31, 0 27.79, 0 22.73 C0 18.9, 0 15.06, 0 7.58 C0 2.53, 2.53 0, 7.58 0" stroke="none" stroke-width="0" fill="#96f2d7"></path><path d="M7.58 0 C12.14 0, 16.7 0, 27.36 0 M7.58 0 C13.88 0, 20.18 0, 27.36 0 M27.36 0 C32.42 0, 34.94 2.53, 34.94 7.58 M27.36 0 C32.42 0, 34.94 2.53, 34.94 7.58 M34.94 7.58 C34.94 12.36, 34.94 17.13, 34.94 22.73 M34.94 7.58 C34.94 12, 34.94 16.42, 34.94 22.73 M34.94 22.73 C34.94 27.79, 32.42 30.31, 27.36 30.31 M34.94 22.73 C34.94 27.79, 32.42 30.31, 27.36 30.31 M27.36 30.31 C21.81 30.31, 16.26 30.31, 7.58 30.31 M27.36 30.31 C19.82 30.31, 12.28 30.31, 7.58 30.31 M7.58 30.31 C2.53 30.31, 0 27.79, 0 22.73 M7.58 30.31 C2.53 30.31, 0 27.79, 0 22.73 M0 22.73 C0 19.25, 0 15.78, 0 7.58 M0 22.73 C0 17.79, 0 12.85, 0 7.58 M0 7.58 C0 2.53, 2.53 0, 7.58 0 M0 7.58 C0 2.53, 2.53 0, 7.58 0" stroke="#1e1e1e" stroke-width="1" fill="none"></path></g><g transform="translate(372.1640625 282.9765625) rotate(0 79.70394897460938 10)"><text x="0" y="14.016" font-family="Virgil, Segoe UI Emoji" font-size="16px" fill="#1e1e1e" text-anchor="start" style="white-space: pre;" direction="ltr" dominant-baseline="alphabetic">Executing the script</text></g><g stroke-linecap="round" transform="translate(325.77734375 347.46875) rotate(0 17.470703125 15.15625)"><path d="M7.58 0 C12.41 0, 17.23 0, 27.36 0 C32.42 0, 34.94 2.53, 34.94 7.58 C34.94 12.35, 34.94 17.12, 34.94 22.73 C34.94 27.79, 32.42 30.31, 27.36 30.31 C22.87 30.31, 18.39 30.31, 7.58 30.31 C2.53 30.31, 0 27.79, 0 22.73 C0 16.98, 0 11.22, 0 7.58 C0 2.53, 2.53 0, 7.58 0" stroke="none" stroke-width="0" fill="#c2255c"></path><path d="M7.58 0 C15.2 0, 22.82 0, 27.36 0 M7.58 0 C13.33 0, 19.07 0, 27.36 0 M27.36 0 C32.42 0, 34.94 2.53, 34.94 7.58 M27.36 0 C32.42 0, 34.94 2.53, 34.94 7.58 M34.94 7.58 C34.94 12.69, 34.94 17.79, 34.94 22.73 M34.94 7.58 C34.94 13.33, 34.94 19.08, 34.94 22.73 M34.94 22.73 C34.94 27.79, 32.42 30.31, 27.36 30.31 M34.94 22.73 C34.94 27.79, 32.42 30.31, 27.36 30.31 M27.36 30.31 C20.23 30.31, 13.1 30.31, 7.58 30.31 M27.36 30.31 C23.27 30.31, 19.18 30.31, 7.58 30.31 M7.58 30.31 C2.53 30.31, 0 27.79, 0 22.73 M7.58 30.31 C2.53 30.31, 0 27.79, 0 22.73 M0 22.73 C0 18.54, 0 14.35, 0 7.58 M0 22.73 C0 18.9, 0 15.06, 0 7.58 M0 7.58 C0 2.53, 2.53 0, 7.58 0 M0 7.58 C0 2.53, 2.53 0, 7.58 0" stroke="#1e1e1e" stroke-width="1" fill="none"></path></g><g transform="translate(376.3046875 352.625) rotate(0 83.41594696044922 10)"><text x="0" y="14.016" font-family="Virgil, Segoe UI Emoji" font-size="16px" fill="#1e1e1e" text-anchor="start" style="white-space: pre;" direction="ltr" dominant-baseline="alphabetic">HTML parsing paused</text></g><g transform="translate(46.671875 10) rotate(0 84.58795928955078 17.5)"><text x="0" y="24.528" font-family="Virgil, Segoe UI Emoji" font-size="28px" fill="#1e1e1e" text-anchor="start" style="white-space: pre;" direction="ltr" dominant-baseline="alphabetic">Defer script</text></g></svg>