<svg version="1.1" xmlns="http://www.w3.org/2000/svg" viewBox="0 0 879.5546875 927.80078125" width="879.5546875" height="927.80078125" filter="invert(93%) hue-rotate(180deg)">
  <!-- svg-source:excalidraw -->
  
  <defs>
    <style class="style-fonts">
      @font-face {
        font-family: "Virgil";
        src: url("https://excalidraw.com/Virgil.woff2");
      }
      @font-face {
        font-family: "Cascadia";
        src: url("https://excalidraw.com/Cascadia.woff2");
      }
    </style>
    
  </defs>
  <rect x="0" y="0" width="879.5546875" height="927.80078125" fill="#ffffff"></rect><g stroke-linecap="round" transform="translate(98.234375 71.8125) rotate(0 150.90234375 238.5)"><path d="M32 0 M32 0 C112.84 0.1, 197.58 1.93, 269.8 0 M32 0 C114.15 -2.49, 193.5 -1.02, 269.8 0 M269.8 0 C293.47 -2.04, 300.07 7.16, 301.8 32 M269.8 0 C295.05 3.02, 305.31 14.85, 301.8 32 M301.8 32 C302.71 150.66, 299.61 270.44, 301.8 445 M301.8 32 C299.91 173.97, 299.82 316.97, 301.8 445 M301.8 445 C305.8 465.87, 287.88 479.28, 269.8 477 M301.8 445 C299.25 461.81, 289.68 478.26, 269.8 477 M269.8 477 C213.09 478.41, 153.5 476.94, 32 477 M269.8 477 C216.48 475.23, 162.85 473.54, 32 477 M32 477 C14.04 478.77, -1.6 468.1, 0 445 M32 477 C7.11 481.48, 1.56 467.21, 0 445 M0 445 C-4.47 299.3, -4.57 150.47, 0 32 M0 445 C-2.31 332.92, -2.07 220.2, 0 32 M0 32 C-2.9 12.53, 7.25 0.71, 32 0 M0 32 C0.39 9.4, 13.17 -3.48, 32 0" stroke="#1e1e1e" stroke-width="1" fill="none"></path></g><g stroke-linecap="round" transform="translate(466.55859375 63.16796875) rotate(0 200.34375 246.826171875)"><path d="M32 0 M32 0 C112.86 0.05, 191.84 0.1, 368.69 0 M32 0 C129.81 2.34, 226.54 2.4, 368.69 0 M368.69 0 C388.52 -2.48, 402.62 8.89, 400.69 32 M368.69 0 C392.74 0.99, 398.89 13.37, 400.69 32 M400.69 32 C398.22 136.3, 396.63 237.22, 400.69 461.65 M400.69 32 C404.2 179.42, 404.35 326.35, 400.69 461.65 M400.69 461.65 C404.26 479.4, 386.2 492.64, 368.69 493.65 M400.69 461.65 C403.4 485.04, 391.93 495.43, 368.69 493.65 M368.69 493.65 C261.61 495.47, 149.92 496.25, 32 493.65 M368.69 493.65 C299.81 491.89, 230.05 492.3, 32 493.65 M32 493.65 C8.45 489.96, -3.01 482.95, 0 461.65 M32 493.65 C12.93 492.18, 0.81 484.91, 0 461.65 M0 461.65 C-0.89 302.65, -2.27 142.95, 0 32 M0 461.65 C-0.38 329.3, 1.6 195.49, 0 32 M0 32 C2.47 11.09, 8.9 -1.45, 32 0 M0 32 C-2.16 11.58, 13 1.22, 32 0" stroke="#1e1e1e" stroke-width="1" fill="none"></path></g><g transform="translate(126.8671875 487.36328125) rotate(0 76.34993743896484 12.5)"><text x="0" y="0" font-family="Virgil, Segoe UI Emoji" font-size="20px" fill="#1e1e1e" text-anchor="start" style="white-space: pre;" direction="ltr" dominant-baseline="text-before-edge">dog = "snickers"</text></g><g transform="translate(119.91015625 427.93359375) rotate(0 130.95989990234375 12.5)"><text x="0" y="0" font-family="Virgil, Segoe UI Emoji" font-size="20px" fill="#1e1e1e" text-anchor="start" style="white-space: pre;" direction="ltr" dominant-baseline="text-before-edge">breed = "King Charles Cav"</text></g><g transform="translate(126.140625 346.4375) rotate(0 31.859970092773438 12.5)"><text x="0" y="0" font-family="Virgil, Segoe UI Emoji" font-size="20px" fill="#1e1e1e" text-anchor="start" style="white-space: pre;" direction="ltr" dominant-baseline="text-before-edge">dogObj</text></g><g transform="translate(492.9375 313.56640625) rotate(0 164.0625 48)"><text x="0" y="0" font-family="Cascadia, Segoe UI Emoji" font-size="20px" fill="#1e1e1e" text-anchor="start" style="white-space: pre;" direction="ltr" dominant-baseline="text-before-edge">{</text><text x="0" y="24" font-family="Cascadia, Segoe UI Emoji" font-size="20px" fill="#1e1e1e" text-anchor="start" style="white-space: pre;" direction="ltr" dominant-baseline="text-before-edge">  name: "snickers",</text><text x="0" y="48" font-family="Cascadia, Segoe UI Emoji" font-size="20px" fill="#1e1e1e" text-anchor="start" style="white-space: pre;" direction="ltr" dominant-baseline="text-before-edge">  breed: "King Charles Cav",</text><text x="0" y="72" font-family="Cascadia, Segoe UI Emoji" font-size="20px" fill="#1e1e1e" text-anchor="start" style="white-space: pre;" direction="ltr" dominant-baseline="text-before-edge">};</text></g><g transform="translate(502.82421875 729.765625) rotate(0 164.0625 48)"><text x="0" y="0" font-family="Cascadia, Segoe UI Emoji" font-size="20px" fill="#1e1e1e" text-anchor="start" style="white-space: pre;" direction="ltr" dominant-baseline="text-before-edge">{</text><text x="0" y="24" font-family="Cascadia, Segoe UI Emoji" font-size="20px" fill="#1e1e1e" text-anchor="start" style="white-space: pre;" direction="ltr" dominant-baseline="text-before-edge">  name: "snickers",</text><text x="0" y="48" font-family="Cascadia, Segoe UI Emoji" font-size="20px" fill="#1e1e1e" text-anchor="start" style="white-space: pre;" direction="ltr" dominant-baseline="text-before-edge">  breed: "Golden Retriever",</text><text x="0" y="72" font-family="Cascadia, Segoe UI Emoji" font-size="20px" fill="#1e1e1e" text-anchor="start" style="white-space: pre;" direction="ltr" dominant-baseline="text-before-edge">};</text></g><g stroke-linecap="round"><g transform="translate(190.86056518554688 360.87801521989013) rotate(0 146.56120429486037 -0.34230075236234825)"><path d="M-1.09 0.79 C48.1 0.68, 244.9 0.68, 294.22 0.48 M0.53 0.15 C49.62 0.19, 244.16 -1.55, 293.1 -1.47" stroke="#1e1e1e" stroke-width="1" fill="none"></path></g><g transform="translate(190.86056518554688 360.87801521989013) rotate(0 146.56120429486037 -0.34230075236234825)"><path d="M266.26 8.38 C271.7 7.31, 276.52 6.45, 293.99 -2.48 M264.38 8.49 C272.48 7.16, 278.1 3.41, 292.77 -1.55" stroke="#1e1e1e" stroke-width="1" fill="none"></path></g><g transform="translate(190.86056518554688 360.87801521989013) rotate(0 146.56120429486037 -0.34230075236234825)"><path d="M266.18 -12.14 C271.82 -8.61, 276.66 -4.88, 293.99 -2.48 M264.3 -12.03 C272.5 -8.43, 278.15 -7.25, 292.77 -1.55" stroke="#1e1e1e" stroke-width="1" fill="none"></path></g></g><mask></mask><g transform="translate(208.03515625 15.28515625) rotate(0 39.605979919433594 17.5)"><text x="0" y="0" font-family="Virgil, Segoe UI Emoji" font-size="28px" fill="#1e1e1e" text-anchor="start" style="white-space: pre;" direction="ltr" dominant-baseline="text-before-edge">Stack</text></g><g transform="translate(556.9140625 10) rotate(0 31.611984252929688 17.5)"><text x="0" y="0" font-family="Virgil, Segoe UI Emoji" font-size="28px" fill="#1e1e1e" text-anchor="start" style="white-space: pre;" direction="ltr" dominant-baseline="text-before-edge">Heap</text></g><g transform="translate(120.703125 276.25390625) rotate(0 83.09994506835938 12.5)"><text x="0" y="0" font-family="Virgil, Segoe UI Emoji" font-size="20px" fill="#1e1e1e" text-anchor="start" style="white-space: pre;" direction="ltr" dominant-baseline="text-before-edge">newDog = "Sunny"</text></g><g transform="translate(117.9140625 207.234375) rotate(0 50.19995880126953 12.5)"><text x="0" y="0" font-family="Virgil, Segoe UI Emoji" font-size="20px" fill="#1e1e1e" text-anchor="start" style="white-space: pre;" direction="ltr" dominant-baseline="text-before-edge">newDogObj</text></g><g stroke-linecap="round"><g transform="translate(224.47839472964404 222.74347085879117) rotate(0 178.11990473356474 26.417426776076297)"><path d="M0.18 0.43 C76.61 -3.56, 150.04 -14.39, 353.45 -40.83 M1.03 1.26 C79.84 -6.87, 156.77 -14.88, 353.41 -39.94 M353.08 -41.16 C351.69 -2.41, 355 41.98, 351.99 93.56 M356.06 -38.48 C354.74 -9.41, 355.91 16.23, 351.83 94" stroke="#1e1e1e" stroke-width="1" fill="none"></path></g><g transform="translate(224.47839472964404 222.74347085879117) rotate(0 178.11990473356474 26.417426776076297)"><path d="M343.07 66.07 C345.25 72.58, 343.91 75.17, 350.52 93.19 M344.4 67.36 C346.64 71.85, 345.2 79.8, 350.45 94.58" stroke="#1e1e1e" stroke-width="1" fill="none"></path></g><g transform="translate(224.47839472964404 222.74347085879117) rotate(0 178.11990473356474 26.417426776076297)"><path d="M363.57 66.95 C361.39 72.87, 355.68 75.27, 350.52 93.19 M364.9 68.24 C362.56 72.34, 356.53 80.09, 350.45 94.58" stroke="#1e1e1e" stroke-width="1" fill="none"></path></g></g><mask></mask><g stroke-linecap="round"><g transform="translate(647.65625 571.19921875) rotate(0 0.32784260184553204 39.9978692708537)"><path d="M1.84 -2.81 C2.25 18.51, 3.09 34.25, 0.86 80.59 M0.37 1.6 C-0.64 18.72, 2.35 39.13, -1.69 82.81" stroke="#1e1e1e" stroke-width="1" fill="none"></path></g><g transform="translate(647.65625 571.19921875) rotate(0 0.32784260184553204 39.9978692708537)"><path d="M-8.38 51.24 C-6.41 60.37, -3.45 64.07, 0.09 81 M-9.85 55.65 C-9.48 59.58, -4.18 66.88, -2.45 83.22" stroke="#1e1e1e" stroke-width="1" fill="none"></path></g><g transform="translate(647.65625 571.19921875) rotate(0 0.32784260184553204 39.9978692708537)"><path d="M12.1 52.48 C9.46 61.67, 7.82 65.09, 0.09 81 M10.63 56.89 C5.98 60.69, 6.27 67.68, -2.45 83.22" stroke="#1e1e1e" stroke-width="1" fill="none"></path></g></g><mask></mask><g stroke-linecap="round" transform="translate(474.32421875 643.53125) rotate(0 197.615234375 137.134765625)"><path d="M0.78 0.36 C94.69 2.69, 188.33 2.5, 396.89 1.54 M0.9 -1.11 C81.02 -0.39, 161.08 -0.45, 396.14 0.94 M397.96 -2.67 C396.83 73.35, 401.21 142.61, 393.52 273.83 M396.15 0.39 C399.92 88.79, 399.5 180.16, 396.52 275.5 M395.85 275.25 C253.79 275.77, 112.2 276.52, 1.6 275.73 M394.6 273.48 C287.68 271.84, 180.6 272.43, 0.18 274.73 M0.67 272.42 C5.03 179.48, 2.79 88.88, 1.01 1.32 M-1.18 273.94 C-0.8 196.38, -2.77 118.75, -0.07 -0.88" stroke="#1e1e1e" stroke-width="1" fill="none"></path></g><g transform="translate(10 601.484375) rotate(0 216.796875 156)"><text x="0" y="0" font-family="Cascadia, Segoe UI Emoji" font-size="20px" fill="#1e1e1e" text-anchor="start" style="white-space: pre;" direction="ltr" dominant-baseline="text-before-edge">let dog = "snickers";</text><text x="0" y="24" font-family="Cascadia, Segoe UI Emoji" font-size="20px" fill="#1e1e1e" text-anchor="start" style="white-space: pre;" direction="ltr" dominant-baseline="text-before-edge">let breed = "King Charles Cav";</text><text x="0" y="48" font-family="Cascadia, Segoe UI Emoji" font-size="20px" fill="#1e1e1e" text-anchor="start" style="white-space: pre;" direction="ltr" dominant-baseline="text-before-edge">let dogObj = {</text><text x="0" y="72" font-family="Cascadia, Segoe UI Emoji" font-size="20px" fill="#1e1e1e" text-anchor="start" style="white-space: pre;" direction="ltr" dominant-baseline="text-before-edge">  name: "snickers",</text><text x="0" y="96" font-family="Cascadia, Segoe UI Emoji" font-size="20px" fill="#1e1e1e" text-anchor="start" style="white-space: pre;" direction="ltr" dominant-baseline="text-before-edge">  breed: "King Charles Cav",</text><text x="0" y="120" font-family="Cascadia, Segoe UI Emoji" font-size="20px" fill="#1e1e1e" text-anchor="start" style="white-space: pre;" direction="ltr" dominant-baseline="text-before-edge">};</text><text x="0" y="144" font-family="Cascadia, Segoe UI Emoji" font-size="20px" fill="#1e1e1e" text-anchor="start" style="white-space: pre;" direction="ltr" dominant-baseline="text-before-edge">let newDog = dog;</text><text x="0" y="168" font-family="Cascadia, Segoe UI Emoji" font-size="20px" fill="#1e1e1e" text-anchor="start" style="white-space: pre;" direction="ltr" dominant-baseline="text-before-edge">newDog = "Sunny";</text><text x="0" y="192" font-family="Cascadia, Segoe UI Emoji" font-size="20px" fill="#1e1e1e" text-anchor="start" style="white-space: pre;" direction="ltr" dominant-baseline="text-before-edge">let newDogObj = dogObj;</text><text x="0" y="216" font-family="Cascadia, Segoe UI Emoji" font-size="20px" fill="#1e1e1e" text-anchor="start" style="white-space: pre;" direction="ltr" dominant-baseline="text-before-edge">newDogObj.breed = "Golden Retriever";</text><text x="0" y="240" font-family="Cascadia, Segoe UI Emoji" font-size="20px" fill="#1e1e1e" text-anchor="start" style="white-space: pre;" direction="ltr" dominant-baseline="text-before-edge"></text><text x="0" y="264" font-family="Cascadia, Segoe UI Emoji" font-size="20px" fill="#1e1e1e" text-anchor="start" style="white-space: pre;" direction="ltr" dominant-baseline="text-before-edge"></text><text x="0" y="288" font-family="Cascadia, Segoe UI Emoji" font-size="20px" fill="#1e1e1e" text-anchor="start" style="white-space: pre;" direction="ltr" dominant-baseline="text-before-edge"></text></g></svg>