<svg version="1.1" xmlns="http://www.w3.org/2000/svg" viewBox="0 0 640.16796875 396.5703125" width="640.16796875" height="396.5703125" filter="invert(93%) hue-rotate(180deg)">
  <!-- svg-source:excalidraw -->
  
  <defs>
    <style class="style-fonts">
      @font-face {
        font-family: "Virgil";
        src: url("https://excalidraw.com/Virgil.woff2");
      }
      @font-face {
        font-family: "Cascadia";
        src: url("https://excalidraw.com/Cascadia.woff2");
      }
      @font-face {
        font-family: "Assistant";
        src: url("https://app.excalidraw.com//dist/excalidraw-assets/Assistant-Regular.woff2");
      }
    </style>
    
  </defs>
  <g transform="translate(10 10) rotate(0 255.97586059570312 17.5)"><text x="0" y="24.528" font-family="Virgil, Segoe UI Emoji" font-size="28px" fill="#1e1e1e" text-anchor="start" style="white-space: pre;" direction="ltr" dominant-baseline="alphabetic">Using the &lt;script&gt; in the &lt;head&gt; tag</text></g><g stroke-linecap="round" transform="translate(11.69921875 111.4921875) rotate(0 309.234375 22.029296875)"><path d="M11.01 0 C161.53 0.76, 315.61 1.62, 607.45 0 C617.21 -2.5, 620.55 6.74, 618.47 11.01 C620.51 16.17, 617.82 19.66, 618.47 33.04 C617.44 40.84, 613.94 47.09, 607.45 44.06 C432.17 43.04, 257.68 42.39, 11.01 44.06 C3.19 44.61, -2.02 41.72, 0 33.04 C0.99 26.83, 3.08 24.07, 0 11.01 C-1.51 3.69, 5.33 -0.89, 11.01 0" stroke="none" stroke-width="0" fill="#ffd8a8"></path><path d="M11.01 0 C174.9 -1.8, 338.79 -2.67, 607.45 0 M11.01 0 C152.82 -2.05, 295 -2.01, 607.45 0 M607.45 0 C613.53 -1.35, 617.33 2.11, 618.47 11.01 M607.45 0 C613.76 2.06, 618.84 3.41, 618.47 11.01 M618.47 11.01 C618.32 15, 618.47 21.32, 618.47 33.04 M618.47 11.01 C619.22 16.17, 618.9 20.92, 618.47 33.04 M618.47 33.04 C619.41 42.03, 615.06 44.76, 607.45 44.06 M618.47 33.04 C617.19 39.64, 616.63 45.87, 607.45 44.06 M607.45 44.06 C439 45.74, 269.38 44.77, 11.01 44.06 M607.45 44.06 C401.93 42.08, 196.27 41.43, 11.01 44.06 M11.01 44.06 C2.16 43.82, -0.75 42.38, 0 33.04 M11.01 44.06 C2.51 42.12, -0.6 38.65, 0 33.04 M0 33.04 C-0.17 26.94, -1.35 19.65, 0 11.01 M0 33.04 C0.33 25.96, -0.84 18.74, 0 11.01 M0 11.01 C-0.6 3.94, 2.53 0.89, 11.01 0 M0 11.01 C2.06 1.6, 3.82 0.73, 11.01 0" stroke="#1e1e1e" stroke-width="1" fill="none"></path></g><g stroke-linecap="round" transform="translate(117.9140625 155.23828125) rotate(0 109.373046875 14.919921875)"><path d="M7.46 0 C64.02 1.93, 118.6 -0.78, 211.29 0 C218.34 3.06, 215.29 1.18, 218.75 7.46 C218.54 11.55, 218.14 16.49, 218.75 22.38 C217.89 30.39, 216.04 33.15, 211.29 29.84 C160.6 31.74, 105.29 32.03, 7.46 29.84 C0.46 31.17, -1.14 23.81, 0 22.38 C1.96 20.89, -1.17 15.16, 0 7.46 C1.66 1.6, -0.37 1.54, 7.46 0" stroke="none" stroke-width="0" fill="#d0bfff"></path><path d="M7.46 0 C87.87 -1.98, 164.5 0.69, 211.29 0 M7.46 0 C83.12 0.77, 159.19 0.73, 211.29 0 M211.29 0 C215.12 -1.56, 217.85 4.28, 218.75 7.46 M211.29 0 C216.63 -0.26, 217.1 0.98, 218.75 7.46 M218.75 7.46 C218.85 11.51, 217.59 15.99, 218.75 22.38 M218.75 7.46 C219.07 12.76, 219.19 18.52, 218.75 22.38 M218.75 22.38 C219.01 28.06, 215.15 29.19, 211.29 29.84 M218.75 22.38 C220.58 29.16, 215.88 31.24, 211.29 29.84 M211.29 29.84 C139.31 29.11, 66.56 31.18, 7.46 29.84 M211.29 29.84 C169.46 30.74, 128.09 31.32, 7.46 29.84 M7.46 29.84 C1.74 31.83, -1.01 25.66, 0 22.38 M7.46 29.84 C1.89 28.11, 0.5 28.28, 0 22.38 M0 22.38 C-0.93 17.28, 0.23 12.3, 0 7.46 M0 22.38 C-0.57 17.85, -0.3 14.05, 0 7.46 M0 7.46 C-1.14 3.38, 4.28 -1.8, 7.46 0 M0 7.46 C0.15 3.22, 1.44 -0.27, 7.46 0" stroke="#1e1e1e" stroke-width="1" fill="none"></path></g><g stroke-linecap="round" transform="translate(329.0390625 186.6171875) rotate(0 48.095703125 13.765625)"><path d="M6.88 0 C30.37 -2.72, 51.12 2.84, 89.31 0 C90.44 -1.31, 95.88 4.48, 96.19 6.88 C95.45 11.58, 95.57 17.74, 96.19 20.65 C95.98 28.55, 92.42 27.7, 89.31 27.53 C59.83 28.17, 29.29 28.96, 6.88 27.53 C1.16 23.99, -2.07 25.84, 0 20.65 C-1.22 16.65, 0.96 12.01, 0 6.88 C-2.86 3.83, 4.93 1.97, 6.88 0" stroke="none" stroke-width="0" fill="#96f2d7"></path><path d="M6.88 0 C33.5 2.14, 64.06 -0.87, 89.31 0 M6.88 0 C24.93 -0.16, 43.67 -0.26, 89.31 0 M89.31 0 C93 1.79, 96.51 2.07, 96.19 6.88 M89.31 0 C92.25 -1.5, 95.25 2.29, 96.19 6.88 M96.19 6.88 C95.13 11.04, 96.89 14.59, 96.19 20.65 M96.19 6.88 C96.56 11.93, 96.32 16.09, 96.19 20.65 M96.19 20.65 C95.08 24.59, 95.49 29.1, 89.31 27.53 M96.19 20.65 C95.82 26.64, 95.21 29.73, 89.31 27.53 M89.31 27.53 C62.2 27.55, 31.36 26.58, 6.88 27.53 M89.31 27.53 C56.65 26.78, 25.12 27.9, 6.88 27.53 M6.88 27.53 C1.29 25.84, -0.52 23.73, 0 20.65 M6.88 27.53 C2.8 28.46, 1.86 25.15, 0 20.65 M0 20.65 C0.29 17.03, -0.16 11.76, 0 6.88 M0 20.65 C-0.12 16.82, -0.3 13.11, 0 6.88 M0 6.88 C1.79 0.5, 2.42 0.64, 6.88 0 M0 6.88 C-1.05 2.02, 1.54 -2.11, 6.88 0" stroke="#1e1e1e" stroke-width="1" fill="none"></path></g><g stroke-linecap="round" transform="translate(114.96484375 109.328125) rotate(0 157.982421875 22.69921875)"><path d="M11.35 0 C105.26 5.01, 193.5 1.75, 304.62 0 C311.87 2.19, 316.63 3.28, 315.96 11.35 C314.99 20.98, 315.63 27.85, 315.96 34.05 C314.49 41.78, 314.05 47.75, 304.62 45.4 C213.29 46.99, 124.13 43.36, 11.35 45.4 C1.71 46, -0.3 44.31, 0 34.05 C1.83 24.55, -2.69 18.37, 0 11.35 C2.63 5.75, 4.15 2.49, 11.35 0" stroke="none" stroke-width="0" fill="#c2255c"></path><path d="M11.35 0 C79.28 -2.78, 143.94 -2.5, 304.62 0 M11.35 0 C80.45 0.89, 150.07 2.14, 304.62 0 M304.62 0 C312.5 -0.23, 314.53 2.47, 315.96 11.35 M304.62 0 C311.24 0, 314.77 3.95, 315.96 11.35 M315.96 11.35 C316.79 19.71, 316.3 26.15, 315.96 34.05 M315.96 11.35 C316.2 18.74, 315.52 25.09, 315.96 34.05 M315.96 34.05 C317.56 43.19, 311.86 46.62, 304.62 45.4 M315.96 34.05 C317.28 43.81, 313.09 46.42, 304.62 45.4 M304.62 45.4 C238.97 45.94, 177.52 45.21, 11.35 45.4 M304.62 45.4 C238.71 45.88, 172.98 44.51, 11.35 45.4 M11.35 45.4 C3.27 43.89, 0.44 42.42, 0 34.05 M11.35 45.4 C5.64 45.31, 1.13 40.17, 0 34.05 M0 34.05 C-0.39 27.39, -0.33 17.34, 0 11.35 M0 34.05 C-0.5 28.66, 0.96 21.48, 0 11.35 M0 11.35 C0.13 4.42, 2.87 -0.23, 11.35 0 M0 11.35 C-0.75 1.67, 2.77 1.48, 11.35 0" stroke="#1e1e1e" stroke-width="1" fill="none"></path></g><g stroke-linecap="round" transform="translate(47.41796875 273.78125) rotate(0 18.091796875 15.408203125)"><path d="M7.7 0 C15.31 0, 22.92 0, 28.48 0 C33.62 0, 36.18 2.57, 36.18 7.7 C36.18 11.08, 36.18 14.46, 36.18 23.11 C36.18 28.25, 33.62 30.82, 28.48 30.82 C22.96 30.82, 17.44 30.82, 7.7 30.82 C2.57 30.82, 0 28.25, 0 23.11 C0 18.28, 0 13.45, 0 7.7 C0 2.57, 2.57 0, 7.7 0" stroke="none" stroke-width="0" fill="#ffd8a8"></path><path d="M7.7 0 C15.07 0, 22.44 0, 28.48 0 M7.7 0 C14.68 0, 21.66 0, 28.48 0 M28.48 0 C33.62 0, 36.18 2.57, 36.18 7.7 M28.48 0 C33.62 0, 36.18 2.57, 36.18 7.7 M36.18 7.7 C36.18 11.79, 36.18 15.87, 36.18 23.11 M36.18 7.7 C36.18 12.73, 36.18 17.77, 36.18 23.11 M36.18 23.11 C36.18 28.25, 33.62 30.82, 28.48 30.82 M36.18 23.11 C36.18 28.25, 33.62 30.82, 28.48 30.82 M28.48 30.82 C22.1 30.82, 15.72 30.82, 7.7 30.82 M28.48 30.82 C24.21 30.82, 19.94 30.82, 7.7 30.82 M7.7 30.82 C2.57 30.82, 0 28.25, 0 23.11 M7.7 30.82 C2.57 30.82, 0 28.25, 0 23.11 M0 23.11 C0 18.03, 0 12.95, 0 7.7 M0 23.11 C0 18.01, 0 12.91, 0 7.7 M0 7.7 C0 2.57, 2.57 0, 7.7 0 M0 7.7 C0 2.57, 2.57 0, 7.7 0" stroke="#1e1e1e" stroke-width="1" fill="none"></path></g><g transform="translate(97.171875 279.189453125) rotate(0 53.663970947265625 10)"><text x="0" y="14.016" font-family="Virgil, Segoe UI Emoji" font-size="16px" fill="#1e1e1e" text-anchor="start" style="white-space: pre;" direction="ltr" dominant-baseline="alphabetic">HTML Parsing</text></g><g stroke-linecap="round" transform="translate(47.46484375 355.4609375) rotate(0 18.392578125 15.5546875)"><path d="M7.78 0 C12.65 0, 17.52 0, 29.01 0 C34.19 0, 36.79 2.59, 36.79 7.78 C36.79 10.96, 36.79 14.13, 36.79 23.33 C36.79 28.52, 34.19 31.11, 29.01 31.11 C24.48 31.11, 19.95 31.11, 7.78 31.11 C2.59 31.11, 0 28.52, 0 23.33 C0 17.29, 0 11.25, 0 7.78 C0 2.59, 2.59 0, 7.78 0" stroke="none" stroke-width="0" fill="#d0bfff"></path><path d="M7.78 0 C13.07 0, 18.36 0, 29.01 0 M7.78 0 C15.29 0, 22.8 0, 29.01 0 M29.01 0 C34.19 0, 36.79 2.59, 36.79 7.78 M29.01 0 C34.19 0, 36.79 2.59, 36.79 7.78 M36.79 7.78 C36.79 13.57, 36.79 19.37, 36.79 23.33 M36.79 7.78 C36.79 13.31, 36.79 18.84, 36.79 23.33 M36.79 23.33 C36.79 28.52, 34.19 31.11, 29.01 31.11 M36.79 23.33 C36.79 28.52, 34.19 31.11, 29.01 31.11 M29.01 31.11 C23.42 31.11, 17.84 31.11, 7.78 31.11 M29.01 31.11 C23.2 31.11, 17.4 31.11, 7.78 31.11 M7.78 31.11 C2.59 31.11, 0 28.52, 0 23.33 M7.78 31.11 C2.59 31.11, 0 28.52, 0 23.33 M0 23.33 C0 19.26, 0 15.18, 0 7.78 M0 23.33 C0 18.83, 0 14.33, 0 7.78 M0 7.78 C0 2.59, 2.59 0, 7.78 0 M0 7.78 C0 2.59, 2.59 0, 7.78 0" stroke="#1e1e1e" stroke-width="1" fill="none"></path></g><g transform="translate(100.1484375 361.015625) rotate(0 64.89595031738281 10)"><text x="0" y="14.016" font-family="Virgil, Segoe UI Emoji" font-size="16px" fill="#1e1e1e" text-anchor="start" style="white-space: pre;" direction="ltr" dominant-baseline="alphabetic">Script downloads</text></g><g stroke-linecap="round" transform="translate(327.4765625 283.3984375) rotate(0 17.470703125 15.15625)"><path d="M7.58 0 C12.11 0, 16.64 0, 27.36 0 C32.42 0, 34.94 2.53, 34.94 7.58 C34.94 12.65, 34.94 17.72, 34.94 22.73 C34.94 27.79, 32.42 30.31, 27.36 30.31 C20.63 30.31, 13.89 30.31, 7.58 30.31 C2.53 30.31, 0 27.79, 0 22.73 C0 16.77, 0 10.8, 0 7.58 C0 2.53, 2.53 0, 7.58 0" stroke="none" stroke-width="0" fill="#96f2d7"></path><path d="M7.58 0 C13.29 0, 19.01 0, 27.36 0 M7.58 0 C12.9 0, 18.23 0, 27.36 0 M27.36 0 C32.42 0, 34.94 2.53, 34.94 7.58 M27.36 0 C32.42 0, 34.94 2.53, 34.94 7.58 M34.94 7.58 C34.94 10.76, 34.94 13.94, 34.94 22.73 M34.94 7.58 C34.94 13.11, 34.94 18.64, 34.94 22.73 M34.94 22.73 C34.94 27.79, 32.42 30.31, 27.36 30.31 M34.94 22.73 C34.94 27.79, 32.42 30.31, 27.36 30.31 M27.36 30.31 C21.26 30.31, 15.16 30.31, 7.58 30.31 M27.36 30.31 C21.19 30.31, 15.02 30.31, 7.58 30.31 M7.58 30.31 C2.53 30.31, 0 27.79, 0 22.73 M7.58 30.31 C2.53 30.31, 0 27.79, 0 22.73 M0 22.73 C0 17.89, 0 13.05, 0 7.58 M0 22.73 C0 17.5, 0 12.27, 0 7.58 M0 7.58 C0 2.53, 2.53 0, 7.58 0 M0 7.58 C0 2.53, 2.53 0, 7.58 0" stroke="#1e1e1e" stroke-width="1" fill="none"></path></g><g transform="translate(373.86328125 288.5546875) rotate(0 79.70394897460938 10)"><text x="0" y="14.016" font-family="Virgil, Segoe UI Emoji" font-size="16px" fill="#1e1e1e" text-anchor="start" style="white-space: pre;" direction="ltr" dominant-baseline="alphabetic">Executing the script</text></g><g stroke-linecap="round" transform="translate(327.4765625 353.046875) rotate(0 17.470703125 15.15625)"><path d="M7.58 0 C12.34 0, 17.1 0, 27.36 0 C32.42 0, 34.94 2.53, 34.94 7.58 C34.94 13.35, 34.94 19.12, 34.94 22.73 C34.94 27.79, 32.42 30.31, 27.36 30.31 C20.24 30.31, 13.12 30.31, 7.58 30.31 C2.53 30.31, 0 27.79, 0 22.73 C0 18.32, 0 13.9, 0 7.58 C0 2.53, 2.53 0, 7.58 0" stroke="none" stroke-width="0" fill="#c2255c"></path><path d="M7.58 0 C14.25 0, 20.92 0, 27.36 0 M7.58 0 C14.95 0, 22.33 0, 27.36 0 M27.36 0 C32.42 0, 34.94 2.53, 34.94 7.58 M27.36 0 C32.42 0, 34.94 2.53, 34.94 7.58 M34.94 7.58 C34.94 13.18, 34.94 18.78, 34.94 22.73 M34.94 7.58 C34.94 13.5, 34.94 19.41, 34.94 22.73 M34.94 22.73 C34.94 27.79, 32.42 30.31, 27.36 30.31 M34.94 22.73 C34.94 27.79, 32.42 30.31, 27.36 30.31 M27.36 30.31 C20.37 30.31, 13.38 30.31, 7.58 30.31 M27.36 30.31 C19.89 30.31, 12.42 30.31, 7.58 30.31 M7.58 30.31 C2.53 30.31, 0 27.79, 0 22.73 M7.58 30.31 C2.53 30.31, 0 27.79, 0 22.73 M0 22.73 C0 17.38, 0 12.02, 0 7.58 M0 22.73 C0 17.83, 0 12.92, 0 7.58 M0 7.58 C0 2.53, 2.53 0, 7.58 0 M0 7.58 C0 2.53, 2.53 0, 7.58 0" stroke="#1e1e1e" stroke-width="1" fill="none"></path></g><g transform="translate(378.00390625 358.203125) rotate(0 83.41594696044922 10)"><text x="0" y="14.016" font-family="Virgil, Segoe UI Emoji" font-size="16px" fill="#1e1e1e" text-anchor="start" style="white-space: pre;" direction="ltr" dominant-baseline="alphabetic">HTML parsing paused</text></g></svg>